<?xml version="1.0" standalone="no"?>
<!DOCTYPE svg PUBLIC "-//W3C//DTD SVG 20010904//EN"
 "http://www.w3.org/TR/2001/REC-SVG-20010904/DTD/svg10.dtd">
<svg version="1.0" xmlns="http://www.w3.org/2000/svg"
 width="512.000000pt" height="512.000000pt" viewBox="0 0 512.000000 512.000000"
 preserveAspectRatio="xMidYMid meet">

<g transform="translate(0.000000,512.000000) scale(0.100000,-0.100000)"
fill="#000000" stroke="none">
<path d="M440 4426 c-108 -23 -189 -90 -239 -196 l-26 -55 -3 -1492 -2 -1493
-38 0 c-20 0 -52 -9 -70 -20 -52 -32 -62 -69 -62 -238 0 -138 2 -151 23 -183
12 -19 38 -42 57 -51 33 -17 172 -18 2480 -18 2308 0 2447 1 2480 18 19 9 45
32 57 51 21 32 23 45 23 183 0 169 -10 206 -62 238 -18 11 -50 20 -70 20 l-38
0 -2 1492 -3 1493 -26 56 c-52 109 -138 177 -253 198 -89 16 -4151 14 -4226
-3z m4204 -166 c54 -12 87 -38 114 -90 l22 -44 -2 -1466 -3 -1465 -887 -3
-886 -2 -7 -30 c-4 -17 -15 -35 -25 -40 -12 -7 -151 -9 -377 -8 l-358 3 -17
35 -18 35 -927 5 -928 5 -3 1465 -2 1466 22 44 c26 50 60 78 109 90 48 11
4125 12 4173 0z m-2520 -3267 c62 -53 67 -53 476 -53 411 0 414 0 486 55 l33
25 915 0 916 0 0 -85 0 -85 -2390 0 -2390 0 0 85 0 85 961 0 961 0 32 -27z"/>
<path d="M574 4093 c-12 -2 -30 -13 -40 -25 -18 -19 -19 -69 -19 -1340 l0
-1320 24 -19 c23 -19 69 -19 2021 -19 1952 0 1998 0 2021 19 l24 19 0 1321 0
1320 -23 23 -23 23 -1982 1 c-1090 1 -1992 -1 -2003 -3z m3864 -1360 l2 -1193
-1880 0 -1880 0 0 1188 c0 654 3 1192 7 1195 3 4 848 6 1877 5 l1871 -3 3
-1192z"/>
<path d="M1080 3151 c-15 -4 -32 -21 -42 -41 -16 -31 -18 -71 -18 -376 0 -374
3 -398 53 -419 31 -13 80 -6 101 15 6 6 13 75 16 163 l5 152 170 0 170 0 5
-152 c3 -88 10 -157 16 -163 21 -21 70 -28 102 -15 51 22 54 49 50 441 -3 323
-4 354 -21 372 -34 37 -115 33 -137 -8 -6 -10 -10 -82 -10 -159 l0 -141 -175
0 -175 0 0 145 c0 132 -2 147 -20 165 -11 11 -24 20 -29 20 -5 0 -15 2 -23 4
-7 2 -24 1 -38 -3z"/>
<path d="M1931 3149 c-53 -21 -67 -85 -30 -133 20 -25 24 -26 125 -26 l104 0
0 -299 c0 -328 4 -355 53 -376 32 -13 80 -6 101 15 7 7 13 125 16 333 l5 322
108 5 c99 5 111 7 128 29 26 32 24 74 -5 108 l-24 28 -279 2 c-165 1 -288 -2
-302 -8z"/>
<path d="M2783 3150 c-35 -14 -56 -55 -49 -94 10 -53 27 -60 145 -66 l106 -5
5 -315 c3 -192 9 -322 15 -333 6 -9 25 -21 42 -26 41 -12 95 14 104 49 4 14 7
161 8 328 l1 302 103 0 c95 0 105 2 125 23 23 25 29 75 12 107 -5 10 -24 23
-41 29 -39 13 -543 14 -576 1z"/>
<path d="M3640 3152 c-14 -4 -33 -22 -42 -42 -16 -31 -18 -71 -18 -376 0 -229
4 -352 11 -374 15 -40 59 -62 103 -49 51 15 56 31 56 170 l0 126 89 5 c72 4
98 11 141 34 95 52 144 132 145 239 0 112 -58 202 -159 246 -42 19 -72 23
-176 25 -69 2 -136 0 -150 -4z m281 -198 c62 -62 40 -152 -41 -174 -23 -6 -60
-10 -83 -8 l-42 3 -3 94 c-1 52 0 101 3 109 4 11 20 13 70 10 57 -3 70 -8 96
-34z"/>
</g>
</svg>
