<?xml version="1.0" standalone="no"?>
<!DOCTYPE svg PUBLIC "-//W3C//DTD SVG 20010904//EN"
 "http://www.w3.org/TR/2001/REC-SVG-20010904/DTD/svg10.dtd">
<svg version="1.0" xmlns="http://www.w3.org/2000/svg"
 width="512.000000pt" height="512.000000pt" viewBox="0 0 512.000000 512.000000"
 preserveAspectRatio="xMidYMid meet">

<g transform="translate(0.000000,512.000000) scale(0.100000,-0.100000)"
fill="#000000" stroke="none">
<path d="M2337 4960 c-336 -71 -617 -290 -766 -599 -21 -44 -43 -94 -49 -110
l-10 -29 -69 16 c-97 21 -333 21 -438 -2 -188 -41 -386 -145 -527 -275 -144
-133 -264 -333 -314 -526 -38 -146 -44 -358 -14 -504 44 -213 129 -376 279
-533 181 -190 358 -280 659 -334 l22 -4 0 -940 c0 -927 0 -940 20 -960 20 -20
33 -20 1430 -20 1397 0 1410 0 1430 20 20 20 20 33 20 960 l0 940 23 4 c12 2
49 9 82 16 191 37 385 136 529 271 351 327 444 848 232 1284 -169 346 -484
569 -871 615 -109 13 -246 7 -339 -14 -52 -12 -58 -12 -63 3 -108 317 -382
586 -702 690 -166 54 -395 67 -564 31z m473 -149 c113 -33 265 -111 355 -184
152 -122 275 -314 327 -507 31 -115 33 -347 4 -460 -32 -127 -94 -259 -171
-366 -14 -19 -12 -23 36 -62 28 -23 55 -40 59 -37 5 3 28 36 53 73 136 206
194 413 184 657 -3 72 -8 137 -12 147 -5 13 4 18 47 28 87 19 228 24 319 10
503 -73 859 -501 836 -1005 -3 -71 -14 -152 -26 -198 -23 -88 -83 -222 -132
-294 -47 -69 -164 -188 -234 -238 -122 -87 -293 -155 -430 -169 -122 -14 -125
-15 -141 -51 -12 -28 -14 -139 -14 -645 l0 -610 -1310 0 -1310 0 0 610 c0 681
1 675 -62 683 -18 3 -80 12 -137 21 -382 59 -688 356 -766 745 -26 126 -17
345 19 464 31 103 82 208 141 293 61 86 198 211 293 268 199 119 456 162 684
115 l57 -12 -7 -31 c-13 -59 -6 -327 10 -401 36 -158 128 -353 217 -457 l34
-39 47 46 48 47 -45 62 c-60 81 -127 222 -155 326 -32 119 -32 366 0 483 99
361 382 626 748 702 103 21 336 14 434 -14z m1060 -4291 l0 -240 -1310 0
-1310 0 0 240 0 240 1310 0 1310 0 0 -240z"/>
<path d="M1795 2208 c-3 -7 -4 -209 -3 -448 l3 -435 68 -3 67 -3 0 451 0 450
-65 0 c-43 0 -67 -4 -70 -12z"/>
<path d="M2490 1770 l0 -451 68 3 67 3 3 448 2 447 -70 0 -70 0 0 -450z"/>
<path d="M3185 2208 c-3 -7 -4 -209 -3 -448 l3 -435 68 -3 67 -3 0 451 0 450
-65 0 c-43 0 -67 -4 -70 -12z"/>
</g>
</svg>
